<?xml version="1.0" encoding="utf-8"?>
<!-- Generator: Adobe Illustrator 16.0.4, SVG Export Plug-In . SVG Version: 6.00 Build 0)  -->
<!DOCTYPE svg PUBLIC "-//W3C//DTD SVG 1.1//EN" "http://www.w3.org/Graphics/SVG/1.1/DTD/svg11.dtd">
<svg version="1.1" xmlns="http://www.w3.org/2000/svg" xmlns:xlink="http://www.w3.org/1999/xlink" x="0px" y="0px" width="600px"
	 height="600px" viewBox="0 0 600 600" enable-background="new 0 0 600 600" xml:space="preserve">
<symbol  id="_x12_5270416704_-1651387264_15_x00_" viewBox="-68 -68 136 136">
	
		<path fill="#FB9B9C" stroke="#E56263" stroke-width="4" stroke-linecap="round" stroke-linejoin="round" stroke-miterlimit="10" d="
		M66,0c0-36.451-29.549-66-66-66S-66-36.451-66,0s29.549,66,66,66S66,36.451,66,0z"/>
</symbol>
<symbol  id="_x12_5270416704_-1651387264_45_x00_" viewBox="-68 -68 136 136">
	
		<path fill="#F4A7AA" stroke="#E07478" stroke-width="4" stroke-linecap="round" stroke-linejoin="round" stroke-miterlimit="10" d="
		M66,0c0-36.451-29.549-66-66-66S-66-36.451-66,0s29.549,66,66,66S66,36.451,66,0z"/>
</symbol>
<symbol  id="_x12_5323374720_-1651387264_10_x00_" viewBox="-22.696 -39.347 45.393 78.693">
	<path fill="#9CD298" stroke="#6EA966" stroke-width="4" stroke-miterlimit="10" d="M16.88,36.884c0,0,0.046-0.109,0.136-0.318
		c0.084-0.208,0.235-0.527,0.377-0.918c0.153-0.397,0.34-0.885,0.522-1.441c0.094-0.28,0.195-0.581,0.303-0.902
		c0.093-0.314,0.193-0.648,0.298-1c0.423-1.412,0.827-3.078,1.186-4.94c0.371-1.867,0.647-3.91,0.821-6.08
		c0.17-2.168,0.223-4.457,0.124-6.806c-0.104-2.347-0.339-4.766-0.757-7.188c-0.821-4.851-2.335-9.733-4.434-14.348
		c-1.05-2.307-2.24-4.55-3.567-6.687c-1.319-2.141-2.784-4.172-4.338-6.075c-1.554-1.903-3.229-3.663-4.934-5.279
		c-1.711-1.613-3.477-3.07-5.23-4.359c-1.756-1.288-3.487-2.413-5.144-3.353c-1.65-0.945-3.176-1.728-4.526-2.332
		c-0.336-0.151-0.655-0.293-0.954-0.428c-0.315-0.128-0.61-0.248-0.883-0.36c-0.542-0.226-1.034-0.403-1.437-0.545
		c-0.391-0.149-0.731-0.244-0.945-0.314c-0.218-0.069-0.331-0.104-0.331-0.104s-0.047,0.108-0.138,0.319
		c-0.086,0.207-0.237,0.526-0.381,0.919c-0.156,0.398-0.344,0.886-0.527,1.443c-0.095,0.28-0.197,0.582-0.306,0.903
		c-0.094,0.315-0.195,0.649-0.301,1.002c-0.427,1.416-0.834,3.082-1.2,4.948c-0.374,1.869-0.656,3.913-0.832,6.083
		c-0.173,2.17-0.227,4.458-0.127,6.809c0.106,2.346,0.34,4.765,0.763,7.186c0.421,2.42,0.998,4.856,1.753,7.255
		c0.747,2.402,1.664,4.77,2.721,7.074c2.116,4.608,4.816,8.948,7.946,12.743c1.558,1.901,3.232,3.662,4.938,5.276
		c1.712,1.613,3.476,3.071,5.227,4.361c1.754,1.289,3.48,2.416,5.134,3.358c1.644,0.948,3.167,1.732,4.512,2.336
		c0.335,0.152,0.653,0.295,0.952,0.431c0.313,0.128,0.607,0.248,0.88,0.361c0.539,0.227,1.031,0.405,1.431,0.548
		c0.39,0.149,0.729,0.244,0.941,0.316C16.768,36.848,16.88,36.884,16.88,36.884z"/>
</symbol>
<symbol  id="_x12_5323374720_-1651387264_11_x00_" viewBox="-22.696 -39.347 45.393 78.693">
	<path fill="#9DD298" stroke="#6FA966" stroke-width="4" stroke-miterlimit="10" d="M16.88,36.884c0,0,0.046-0.109,0.136-0.318
		c0.084-0.208,0.235-0.527,0.377-0.918c0.153-0.397,0.34-0.885,0.522-1.441c0.094-0.28,0.195-0.581,0.303-0.902
		c0.093-0.314,0.193-0.648,0.298-1c0.423-1.412,0.827-3.078,1.186-4.94c0.371-1.867,0.647-3.91,0.821-6.08
		c0.17-2.168,0.223-4.457,0.124-6.806c-0.104-2.347-0.339-4.766-0.757-7.188c-0.821-4.851-2.335-9.733-4.434-14.348
		c-1.05-2.307-2.24-4.55-3.567-6.687c-1.319-2.141-2.784-4.172-4.338-6.075c-1.554-1.903-3.229-3.663-4.934-5.279
		c-1.711-1.613-3.477-3.07-5.23-4.359c-1.756-1.288-3.487-2.413-5.144-3.353c-1.65-0.945-3.176-1.728-4.526-2.332
		c-0.336-0.151-0.655-0.293-0.954-0.428c-0.315-0.128-0.61-0.248-0.883-0.36c-0.542-0.226-1.034-0.403-1.437-0.545
		c-0.391-0.149-0.731-0.244-0.945-0.314c-0.218-0.069-0.331-0.104-0.331-0.104s-0.047,0.108-0.138,0.319
		c-0.086,0.207-0.237,0.526-0.381,0.919c-0.156,0.398-0.344,0.886-0.527,1.443c-0.095,0.28-0.197,0.582-0.306,0.903
		c-0.094,0.315-0.195,0.649-0.301,1.002c-0.427,1.416-0.834,3.082-1.2,4.948c-0.374,1.869-0.656,3.913-0.832,6.083
		c-0.173,2.17-0.227,4.458-0.127,6.809c0.106,2.346,0.34,4.765,0.763,7.186c0.421,2.42,0.998,4.856,1.753,7.255
		c0.747,2.402,1.664,4.77,2.721,7.074c2.116,4.608,4.816,8.948,7.946,12.743c1.558,1.901,3.232,3.662,4.938,5.276
		c1.712,1.613,3.476,3.071,5.227,4.361c1.754,1.289,3.48,2.416,5.134,3.358c1.644,0.948,3.167,1.732,4.512,2.336
		c0.335,0.152,0.653,0.295,0.952,0.431c0.313,0.128,0.607,0.248,0.88,0.361c0.539,0.227,1.031,0.405,1.431,0.548
		c0.39,0.149,0.729,0.244,0.941,0.316C16.768,36.848,16.88,36.884,16.88,36.884z"/>
</symbol>
<symbol  id="_x12_5323374720_-1651387264_33_x00_" viewBox="-22.696 -39.347 45.393 78.693">
	<path fill="#AFCEA5" stroke="#89A677" stroke-width="4" stroke-miterlimit="10" d="M16.88,36.884c0,0,0.046-0.109,0.136-0.318
		c0.084-0.208,0.235-0.527,0.377-0.918c0.153-0.397,0.34-0.885,0.522-1.441c0.094-0.28,0.195-0.581,0.303-0.902
		c0.093-0.314,0.193-0.648,0.298-1c0.423-1.412,0.827-3.078,1.186-4.94c0.371-1.867,0.647-3.91,0.821-6.08
		c0.17-2.168,0.223-4.457,0.124-6.806c-0.104-2.347-0.339-4.766-0.757-7.188c-0.821-4.851-2.335-9.733-4.434-14.348
		c-1.05-2.307-2.24-4.55-3.567-6.687c-1.319-2.141-2.784-4.172-4.338-6.075c-1.554-1.903-3.229-3.663-4.934-5.279
		c-1.711-1.613-3.477-3.07-5.23-4.359c-1.756-1.288-3.487-2.413-5.144-3.353c-1.65-0.945-3.176-1.728-4.526-2.332
		c-0.336-0.151-0.655-0.293-0.954-0.428c-0.315-0.128-0.61-0.248-0.883-0.36c-0.542-0.226-1.034-0.403-1.437-0.545
		c-0.391-0.149-0.731-0.244-0.945-0.314c-0.218-0.069-0.331-0.104-0.331-0.104s-0.047,0.108-0.138,0.319
		c-0.086,0.207-0.237,0.526-0.381,0.919c-0.156,0.398-0.344,0.886-0.527,1.443c-0.095,0.28-0.197,0.582-0.306,0.903
		c-0.094,0.315-0.195,0.649-0.301,1.002c-0.427,1.416-0.834,3.082-1.2,4.948c-0.374,1.869-0.656,3.913-0.832,6.083
		c-0.173,2.17-0.227,4.458-0.127,6.809c0.106,2.346,0.34,4.765,0.763,7.186c0.421,2.42,0.998,4.856,1.753,7.255
		c0.747,2.402,1.664,4.77,2.721,7.074c2.116,4.608,4.816,8.948,7.946,12.743c1.558,1.901,3.232,3.662,4.938,5.276
		c1.712,1.613,3.476,3.071,5.227,4.361c1.754,1.289,3.48,2.416,5.134,3.358c1.644,0.948,3.167,1.732,4.512,2.336
		c0.335,0.152,0.653,0.295,0.952,0.431c0.313,0.128,0.607,0.248,0.88,0.361c0.539,0.227,1.031,0.405,1.431,0.548
		c0.39,0.149,0.729,0.244,0.941,0.316C16.768,36.848,16.88,36.884,16.88,36.884z"/>
</symbol>
<symbol  id="_x12_5323374720_-1651387264_37_x00_" viewBox="-22.696 -39.347 45.393 78.693">
	<path fill="#B2CEA7" stroke="#8DA679" stroke-width="4" stroke-miterlimit="10" d="M16.88,36.884c0,0,0.046-0.109,0.136-0.318
		c0.084-0.208,0.235-0.527,0.377-0.918c0.153-0.397,0.34-0.885,0.522-1.441c0.094-0.28,0.195-0.581,0.303-0.902
		c0.093-0.314,0.193-0.648,0.298-1c0.423-1.412,0.827-3.078,1.186-4.94c0.371-1.867,0.647-3.91,0.821-6.08
		c0.17-2.168,0.223-4.457,0.124-6.806c-0.104-2.347-0.339-4.766-0.757-7.188c-0.821-4.851-2.335-9.733-4.434-14.348
		c-1.05-2.307-2.24-4.55-3.567-6.687c-1.319-2.141-2.784-4.172-4.338-6.075c-1.554-1.903-3.229-3.663-4.934-5.279
		c-1.711-1.613-3.477-3.07-5.23-4.359c-1.756-1.288-3.487-2.413-5.144-3.353c-1.65-0.945-3.176-1.728-4.526-2.332
		c-0.336-0.151-0.655-0.293-0.954-0.428c-0.315-0.128-0.61-0.248-0.883-0.36c-0.542-0.226-1.034-0.403-1.437-0.545
		c-0.391-0.149-0.731-0.244-0.945-0.314c-0.218-0.069-0.331-0.104-0.331-0.104s-0.047,0.108-0.138,0.319
		c-0.086,0.207-0.237,0.526-0.381,0.919c-0.156,0.398-0.344,0.886-0.527,1.443c-0.095,0.28-0.197,0.582-0.306,0.903
		c-0.094,0.315-0.195,0.649-0.301,1.002c-0.427,1.416-0.834,3.082-1.2,4.948c-0.374,1.869-0.656,3.913-0.832,6.083
		c-0.173,2.17-0.227,4.458-0.127,6.809c0.106,2.346,0.34,4.765,0.763,7.186c0.421,2.42,0.998,4.856,1.753,7.255
		c0.747,2.402,1.664,4.77,2.721,7.074c2.116,4.608,4.816,8.948,7.946,12.743c1.558,1.901,3.232,3.662,4.938,5.276
		c1.712,1.613,3.476,3.071,5.227,4.361c1.754,1.289,3.48,2.416,5.134,3.358c1.644,0.948,3.167,1.732,4.512,2.336
		c0.335,0.152,0.653,0.295,0.952,0.431c0.313,0.128,0.607,0.248,0.88,0.361c0.539,0.227,1.031,0.405,1.431,0.548
		c0.39,0.149,0.729,0.244,0.941,0.316C16.768,36.848,16.88,36.884,16.88,36.884z"/>
</symbol>
<symbol  id="_x12_5323374720_-1651387264_43_x00_" viewBox="-22.696 -39.347 45.393 78.693">
	<path fill="#B8CDAA" stroke="#95A57E" stroke-width="4" stroke-miterlimit="10" d="M16.88,36.884c0,0,0.046-0.109,0.136-0.318
		c0.084-0.208,0.235-0.527,0.377-0.918c0.153-0.397,0.34-0.885,0.522-1.441c0.094-0.28,0.195-0.581,0.303-0.902
		c0.093-0.314,0.193-0.648,0.298-1c0.423-1.412,0.827-3.078,1.186-4.94c0.371-1.867,0.647-3.91,0.821-6.08
		c0.17-2.168,0.223-4.457,0.124-6.806c-0.104-2.347-0.339-4.766-0.757-7.188c-0.821-4.851-2.335-9.733-4.434-14.348
		c-1.05-2.307-2.24-4.55-3.567-6.687c-1.319-2.141-2.784-4.172-4.338-6.075c-1.554-1.903-3.229-3.663-4.934-5.279
		c-1.711-1.613-3.477-3.07-5.23-4.359c-1.756-1.288-3.487-2.413-5.144-3.353c-1.65-0.945-3.176-1.728-4.526-2.332
		c-0.336-0.151-0.655-0.293-0.954-0.428c-0.315-0.128-0.61-0.248-0.883-0.36c-0.542-0.226-1.034-0.403-1.437-0.545
		c-0.391-0.149-0.731-0.244-0.945-0.314c-0.218-0.069-0.331-0.104-0.331-0.104s-0.047,0.108-0.138,0.319
		c-0.086,0.207-0.237,0.526-0.381,0.919c-0.156,0.398-0.344,0.886-0.527,1.443c-0.095,0.28-0.197,0.582-0.306,0.903
		c-0.094,0.315-0.195,0.649-0.301,1.002c-0.427,1.416-0.834,3.082-1.2,4.948c-0.374,1.869-0.656,3.913-0.832,6.083
		c-0.173,2.17-0.227,4.458-0.127,6.809c0.106,2.346,0.34,4.765,0.763,7.186c0.421,2.42,0.998,4.856,1.753,7.255
		c0.747,2.402,1.664,4.77,2.721,7.074c2.116,4.608,4.816,8.948,7.946,12.743c1.558,1.901,3.232,3.662,4.938,5.276
		c1.712,1.613,3.476,3.071,5.227,4.361c1.754,1.289,3.48,2.416,5.134,3.358c1.644,0.948,3.167,1.732,4.512,2.336
		c0.335,0.152,0.653,0.295,0.952,0.431c0.313,0.128,0.607,0.248,0.88,0.361c0.539,0.227,1.031,0.405,1.431,0.548
		c0.39,0.149,0.729,0.244,0.941,0.316C16.768,36.848,16.88,36.884,16.88,36.884z"/>
</symbol>
<symbol  id="_x12_5323374720_-1651387264_7_x00_" viewBox="-22.696 -39.347 45.393 78.693">
	<path fill="#99D396" stroke="#69AA63" stroke-width="4" stroke-miterlimit="10" d="M16.88,36.884c0,0,0.046-0.109,0.136-0.318
		c0.084-0.208,0.235-0.527,0.377-0.918c0.153-0.397,0.34-0.885,0.522-1.441c0.094-0.28,0.195-0.581,0.303-0.902
		c0.093-0.314,0.193-0.648,0.298-1c0.423-1.412,0.827-3.078,1.186-4.94c0.371-1.867,0.647-3.91,0.821-6.08
		c0.17-2.168,0.223-4.457,0.124-6.806c-0.104-2.347-0.339-4.766-0.757-7.188c-0.821-4.851-2.335-9.733-4.434-14.348
		c-1.05-2.307-2.24-4.55-3.567-6.687c-1.319-2.141-2.784-4.172-4.338-6.075c-1.554-1.903-3.229-3.663-4.934-5.279
		c-1.711-1.613-3.477-3.07-5.23-4.359c-1.756-1.288-3.487-2.413-5.144-3.353c-1.65-0.945-3.176-1.728-4.526-2.332
		c-0.336-0.151-0.655-0.293-0.954-0.428c-0.315-0.128-0.61-0.248-0.883-0.36c-0.542-0.226-1.034-0.403-1.437-0.545
		c-0.391-0.149-0.731-0.244-0.945-0.314c-0.218-0.069-0.331-0.104-0.331-0.104s-0.047,0.108-0.138,0.319
		c-0.086,0.207-0.237,0.526-0.381,0.919c-0.156,0.398-0.344,0.886-0.527,1.443c-0.095,0.28-0.197,0.582-0.306,0.903
		c-0.094,0.315-0.195,0.649-0.301,1.002c-0.427,1.416-0.834,3.082-1.2,4.948c-0.374,1.869-0.656,3.913-0.832,6.083
		c-0.173,2.17-0.227,4.458-0.127,6.809c0.106,2.346,0.34,4.765,0.763,7.186c0.421,2.42,0.998,4.856,1.753,7.255
		c0.747,2.402,1.664,4.77,2.721,7.074c2.116,4.608,4.816,8.948,7.946,12.743c1.558,1.901,3.232,3.662,4.938,5.276
		c1.712,1.613,3.476,3.071,5.227,4.361c1.754,1.289,3.48,2.416,5.134,3.358c1.644,0.948,3.167,1.732,4.512,2.336
		c0.335,0.152,0.653,0.295,0.952,0.431c0.313,0.128,0.607,0.248,0.88,0.361c0.539,0.227,1.031,0.405,1.431,0.548
		c0.39,0.149,0.729,0.244,0.941,0.316C16.768,36.848,16.88,36.884,16.88,36.884z"/>
</symbol>
<symbol  id="_x12_5323374720_-1651387264_9_x00_" viewBox="-22.696 -39.347 45.393 78.693">
	<path fill="#9BD297" stroke="#6CAA65" stroke-width="4" stroke-miterlimit="10" d="M16.88,36.884c0,0,0.046-0.109,0.136-0.318
		c0.084-0.208,0.235-0.527,0.377-0.918c0.153-0.397,0.34-0.885,0.522-1.441c0.094-0.28,0.195-0.581,0.303-0.902
		c0.093-0.314,0.193-0.648,0.298-1c0.423-1.412,0.827-3.078,1.186-4.94c0.371-1.867,0.647-3.91,0.821-6.08
		c0.17-2.168,0.223-4.457,0.124-6.806c-0.104-2.347-0.339-4.766-0.757-7.188c-0.821-4.851-2.335-9.733-4.434-14.348
		c-1.05-2.307-2.24-4.55-3.567-6.687c-1.319-2.141-2.784-4.172-4.338-6.075c-1.554-1.903-3.229-3.663-4.934-5.279
		c-1.711-1.613-3.477-3.07-5.23-4.359c-1.756-1.288-3.487-2.413-5.144-3.353c-1.65-0.945-3.176-1.728-4.526-2.332
		c-0.336-0.151-0.655-0.293-0.954-0.428c-0.315-0.128-0.61-0.248-0.883-0.36c-0.542-0.226-1.034-0.403-1.437-0.545
		c-0.391-0.149-0.731-0.244-0.945-0.314c-0.218-0.069-0.331-0.104-0.331-0.104s-0.047,0.108-0.138,0.319
		c-0.086,0.207-0.237,0.526-0.381,0.919c-0.156,0.398-0.344,0.886-0.527,1.443c-0.095,0.28-0.197,0.582-0.306,0.903
		c-0.094,0.315-0.195,0.649-0.301,1.002c-0.427,1.416-0.834,3.082-1.2,4.948c-0.374,1.869-0.656,3.913-0.832,6.083
		c-0.173,2.17-0.227,4.458-0.127,6.809c0.106,2.346,0.34,4.765,0.763,7.186c0.421,2.42,0.998,4.856,1.753,7.255
		c0.747,2.402,1.664,4.77,2.721,7.074c2.116,4.608,4.816,8.948,7.946,12.743c1.558,1.901,3.232,3.662,4.938,5.276
		c1.712,1.613,3.476,3.071,5.227,4.361c1.754,1.289,3.48,2.416,5.134,3.358c1.644,0.948,3.167,1.732,4.512,2.336
		c0.335,0.152,0.653,0.295,0.952,0.431c0.313,0.128,0.607,0.248,0.88,0.361c0.539,0.227,1.031,0.405,1.431,0.548
		c0.39,0.149,0.729,0.244,0.941,0.316C16.768,36.848,16.88,36.884,16.88,36.884z"/>
</symbol>
<symbol  id="_x12_5323387200_-1651387264_15_x00_" viewBox="-13.719 -13.719 27.438 27.439">
	<g>
		<path fill="#D697A2" d="M11.708-6.375c0.161-2.194-1.503-4.12-3.697-4.281l-14.387-1.052c-2.193-0.161-4.121,1.503-4.281,3.697
			l-1.052,14.388c-0.16,2.194,1.504,4.12,3.698,4.281l14.387,1.051c2.194,0.161,4.12-1.503,4.281-3.697L11.708-6.375z"/>
		<path fill="none" stroke="#B16D78" stroke-width="4" stroke-miterlimit="10" d="M11.708-6.375c0.161-2.194-1.503-4.12-3.697-4.281
			l-14.387-1.052c-2.193-0.161-4.121,1.503-4.281,3.697l-1.052,14.388c-0.16,2.194,1.504,4.12,3.698,4.281l14.387,1.051
			c2.194,0.161,4.12-1.503,4.281-3.697L11.708-6.375z"/>
	</g>
</symbol>
<symbol  id="_x12_5323387200_-1651387264_17_x00_" viewBox="-13.719 -13.719 27.438 27.439">
	<g>
		<path fill="#D698A2" d="M11.708-6.375c0.161-2.194-1.503-4.12-3.697-4.281l-14.387-1.052c-2.193-0.161-4.121,1.503-4.281,3.697
			l-1.052,14.388c-0.16,2.194,1.504,4.12,3.698,4.281l14.387,1.051c2.194,0.161,4.12-1.503,4.281-3.697L11.708-6.375z"/>
		<path fill="none" stroke="#B16E79" stroke-width="4" stroke-miterlimit="10" d="M11.708-6.375c0.161-2.194-1.503-4.12-3.697-4.281
			l-14.387-1.052c-2.193-0.161-4.121,1.503-4.281,3.697l-1.052,14.388c-0.16,2.194,1.504,4.12,3.698,4.281l14.387,1.051
			c2.194,0.161,4.12-1.503,4.281-3.697L11.708-6.375z"/>
	</g>
</symbol>
<symbol  id="_x12_5323387200_-1651387264_18_x00_" viewBox="-13.719 -13.719 27.438 27.439">
	<g>
		<path fill="#D798A3" d="M11.708-6.375c0.161-2.194-1.503-4.12-3.697-4.281l-14.387-1.052c-2.193-0.161-4.121,1.503-4.281,3.697
			l-1.052,14.388c-0.16,2.194,1.504,4.12,3.698,4.281l14.387,1.051c2.194,0.161,4.12-1.503,4.281-3.697L11.708-6.375z"/>
		<path fill="none" stroke="#B26E79" stroke-width="4" stroke-miterlimit="10" d="M11.708-6.375c0.161-2.194-1.503-4.12-3.697-4.281
			l-14.387-1.052c-2.193-0.161-4.121,1.503-4.281,3.697l-1.052,14.388c-0.16,2.194,1.504,4.12,3.698,4.281l14.387,1.051
			c2.194,0.161,4.12-1.503,4.281-3.697L11.708-6.375z"/>
	</g>
</symbol>
<symbol  id="_x12_5323387200_-1651387264_36_x00_" viewBox="-13.719 -13.719 27.438 27.439">
	<g>
		<path fill="#D99EA8" d="M11.708-6.375c0.161-2.194-1.503-4.12-3.697-4.281l-14.387-1.052c-2.193-0.161-4.121,1.503-4.281,3.697
			l-1.052,14.388c-0.16,2.194,1.504,4.12,3.698,4.281l14.387,1.051c2.194,0.161,4.12-1.503,4.281-3.697L11.708-6.375z"/>
		<path fill="none" stroke="#B87681" stroke-width="4" stroke-miterlimit="10" d="M11.708-6.375c0.161-2.194-1.503-4.12-3.697-4.281
			l-14.387-1.052c-2.193-0.161-4.121,1.503-4.281,3.697l-1.052,14.388c-0.16,2.194,1.504,4.12,3.698,4.281l14.387,1.051
			c2.194,0.161,4.12-1.503,4.281-3.697L11.708-6.375z"/>
	</g>
</symbol>
<symbol  id="_x12_5323387200_-1651387264_38_x00_" viewBox="-13.719 -13.719 27.438 27.439">
	<g>
		<path fill="#D99FA9" d="M11.708-6.375c0.161-2.194-1.503-4.12-3.697-4.281l-14.387-1.052c-2.193-0.161-4.121,1.503-4.281,3.697
			l-1.052,14.388c-0.16,2.194,1.504,4.12,3.698,4.281l14.387,1.051c2.194,0.161,4.12-1.503,4.281-3.697L11.708-6.375z"/>
		<path fill="none" stroke="#B97681" stroke-width="4" stroke-miterlimit="10" d="M11.708-6.375c0.161-2.194-1.503-4.12-3.697-4.281
			l-14.387-1.052c-2.193-0.161-4.121,1.503-4.281,3.697l-1.052,14.388c-0.16,2.194,1.504,4.12,3.698,4.281l14.387,1.051
			c2.194,0.161,4.12-1.503,4.281-3.697L11.708-6.375z"/>
	</g>
</symbol>
<symbol  id="_x12_5323387200_-1651387264_56_x00_" viewBox="-13.719 -13.719 27.438 27.439">
	<g>
		<path fill="#DBA5AE" d="M11.708-6.375c0.161-2.194-1.503-4.12-3.697-4.281l-14.387-1.052c-2.193-0.161-4.121,1.503-4.281,3.697
			l-1.052,14.388c-0.16,2.194,1.504,4.12,3.698,4.281l14.387,1.051c2.194,0.161,4.12-1.503,4.281-3.697L11.708-6.375z"/>
		<path fill="none" stroke="#BF7D88" stroke-width="4" stroke-miterlimit="10" d="M11.708-6.375c0.161-2.194-1.503-4.12-3.697-4.281
			l-14.387-1.052c-2.193-0.161-4.121,1.503-4.281,3.697l-1.052,14.388c-0.16,2.194,1.504,4.12,3.698,4.281l14.387,1.051
			c2.194,0.161,4.12-1.503,4.281-3.697L11.708-6.375z"/>
	</g>
</symbol>
<symbol  id="_x12_5323387200_-1651387264_57_x00_" viewBox="-13.719 -13.719 27.438 27.439">
	<g>
		<path fill="#DCA5AE" d="M11.708-6.375c0.161-2.194-1.503-4.12-3.697-4.281l-14.387-1.052c-2.193-0.161-4.121,1.503-4.281,3.697
			l-1.052,14.388c-0.16,2.194,1.504,4.12,3.698,4.281l14.387,1.051c2.194,0.161,4.12-1.503,4.281-3.697L11.708-6.375z"/>
		<path fill="none" stroke="#C07E88" stroke-width="4" stroke-miterlimit="10" d="M11.708-6.375c0.161-2.194-1.503-4.12-3.697-4.281
			l-14.387-1.052c-2.193-0.161-4.121,1.503-4.281,3.697l-1.052,14.388c-0.16,2.194,1.504,4.12,3.698,4.281l14.387,1.051
			c2.194,0.161,4.12-1.503,4.281-3.697L11.708-6.375z"/>
	</g>
</symbol>
<symbol  id="_x12_5323387200_-1651387264_70_x00_" viewBox="-13.719 -13.719 27.438 27.439">
	<g>
		<path fill="#DDAAB2" d="M11.708-6.375c0.161-2.194-1.503-4.12-3.697-4.281l-14.387-1.052c-2.193-0.161-4.121,1.503-4.281,3.697
			l-1.052,14.388c-0.16,2.194,1.504,4.12,3.698,4.281l14.387,1.051c2.194,0.161,4.12-1.503,4.281-3.697L11.708-6.375z"/>
		<path fill="none" stroke="#C4838E" stroke-width="4" stroke-miterlimit="10" d="M11.708-6.375c0.161-2.194-1.503-4.12-3.697-4.281
			l-14.387-1.052c-2.193-0.161-4.121,1.503-4.281,3.697l-1.052,14.388c-0.16,2.194,1.504,4.12,3.698,4.281l14.387,1.051
			c2.194,0.161,4.12-1.503,4.281-3.697L11.708-6.375z"/>
	</g>
</symbol>
<symbol  id="Ham" viewBox="-13.719 -13.72 27.438 27.439">
	<g>
		<path fill="#D4929D" d="M11.708-6.376c0.161-2.194-1.503-4.12-3.697-4.281l-14.387-1.052c-2.194-0.161-4.121,1.503-4.281,3.697
			l-1.052,14.388c-0.16,2.194,1.504,4.12,3.698,4.281l14.387,1.051c2.194,0.161,4.12-1.503,4.281-3.697L11.708-6.376z"/>
		<path fill="none" stroke="#AB6772" stroke-width="4" stroke-miterlimit="10" d="M11.708-6.376c0.161-2.194-1.503-4.12-3.697-4.281
			l-14.387-1.052c-2.194-0.161-4.121,1.503-4.281,3.697l-1.052,14.388c-0.16,2.194,1.504,4.12,3.698,4.281l14.387,1.051
			c2.194,0.161,4.12-1.503,4.281-3.697L11.708-6.376z"/>
	</g>
</symbol>
<symbol  id="Spinach" viewBox="-22.697 -39.347 45.393 78.693">
	<path fill="#93D492" stroke="#61AB5E" stroke-width="4" stroke-miterlimit="10" d="M16.88,36.884c0,0,0.046-0.109,0.136-0.318
		c0.084-0.208,0.235-0.527,0.377-0.918c0.153-0.397,0.34-0.885,0.522-1.441c0.094-0.28,0.195-0.581,0.303-0.902
		c0.093-0.314,0.193-0.648,0.298-1c0.423-1.412,0.827-3.078,1.186-4.94c0.371-1.867,0.647-3.91,0.821-6.08
		c0.17-2.168,0.223-4.457,0.124-6.806c-0.104-2.347-0.339-4.766-0.757-7.188c-0.821-4.851-2.335-9.733-4.434-14.348
		c-1.05-2.307-2.24-4.55-3.567-6.687c-1.319-2.141-2.784-4.172-4.338-6.075c-1.554-1.903-3.229-3.663-4.934-5.279
		c-1.711-1.613-3.477-3.07-5.231-4.359c-1.756-1.288-3.486-2.413-5.144-3.353c-1.65-0.945-3.177-1.728-4.526-2.332
		c-0.336-0.151-0.655-0.293-0.955-0.428c-0.314-0.128-0.609-0.248-0.883-0.36c-0.542-0.226-1.033-0.403-1.437-0.545
		c-0.391-0.149-0.731-0.244-0.945-0.314c-0.218-0.069-0.331-0.104-0.331-0.104s-0.047,0.108-0.138,0.319
		c-0.086,0.207-0.237,0.526-0.381,0.919c-0.156,0.398-0.344,0.886-0.527,1.443c-0.095,0.28-0.197,0.582-0.306,0.903
		c-0.094,0.315-0.195,0.649-0.301,1.002c-0.427,1.416-0.834,3.082-1.2,4.948c-0.374,1.869-0.656,3.913-0.832,6.083
		c-0.173,2.17-0.227,4.458-0.127,6.809c0.106,2.346,0.34,4.765,0.763,7.186c0.421,2.42,0.998,4.856,1.753,7.255
		c0.747,2.402,1.665,4.77,2.721,7.074c2.116,4.608,4.816,8.948,7.946,12.743c1.558,1.901,3.232,3.662,4.938,5.276
		c1.712,1.613,3.476,3.071,5.227,4.361c1.754,1.289,3.48,2.416,5.134,3.358c1.644,0.948,3.167,1.732,4.512,2.336
		c0.335,0.152,0.653,0.295,0.952,0.431c0.313,0.128,0.607,0.248,0.88,0.361c0.539,0.227,1.031,0.405,1.431,0.548
		c0.39,0.149,0.729,0.244,0.941,0.316C16.768,36.848,16.88,36.884,16.88,36.884z"/>
</symbol>
<symbol  id="Tomato" viewBox="-68 -68 136 136">
	
		<path fill="#FF9494" stroke="#E85858" stroke-width="4" stroke-linecap="round" stroke-linejoin="round" stroke-miterlimit="10" d="
		M66,0c0-36.451-29.549-66-66-66S-66-36.451-66,0s29.549,66,66,66S66,36.451,66,0z"/>
</symbol>
<pattern  width="57.6" height="57.601" patternUnits="userSpaceOnUse" id="New_Pattern" viewBox="4.185 -61.501 57.6 57.601" overflow="visible">
	<g>
		<polygon fill="none" points="4.185,-61.501 61.785,-61.501 61.785,-3.9 4.185,-3.9 		"/>
		<g>
			<g>
				
					<line fill="none" stroke="#FFD400" stroke-width="1.6" stroke-linecap="round" x1="48.513" y1="-1.734" x2="44.841" y2="-3.923"/>
				<line fill="none" stroke="#FFD400" stroke-width="1.6" stroke-linecap="round" x1="33.681" y1="-6.3" x2="31.892" y2="-0.809"/>
				<line fill="none" stroke="#FFD400" stroke-width="1.6" stroke-linecap="round" x1="25.681" y1="-5.05" x2="28.681" y2="-0.8"/>
				
					<line fill="none" stroke="#FFD400" stroke-width="1.6" stroke-linecap="round" x1="55.119" y1="-4.135" x2="51.814" y2="-1.425"/>
				
					<line fill="none" stroke="#FFD400" stroke-width="1.6" stroke-linecap="round" x1="12.714" y1="-5.673" x2="11.784" y2="-1.502"/>
				
					<line fill="none" stroke="#FFD400" stroke-width="1.6" stroke-linecap="round" x1="19.181" y1="-5.899" x2="15.931" y2="-3.55"/>
				<line fill="none" stroke="#FFD400" stroke-width="1.6" stroke-linecap="round" x1="5.78" y1="-6.099" x2="6.585" y2="-1.901"/>
				
					<line fill="none" stroke="#FFD400" stroke-width="1.6" stroke-linecap="round" x1="58.185" y1="-1.102" x2="60.394" y2="-4.76"/>
				<line fill="none" stroke="#FFD400" stroke-width="1.6" stroke-linecap="round" x1="38.181" y1="-0.8" x2="38.154" y2="-4.073"/>
				
					<line fill="none" stroke="#FFD400" stroke-width="1.6" stroke-linecap="round" x1="21.091" y1="-7.364" x2="21.806" y2="-3.149"/>
				
					<line fill="none" stroke="#FFD400" stroke-width="1.6" stroke-linecap="round" x1="41.333" y1="-5.703" x2="43.181" y2="-2.399"/>
			</g>
		</g>
		<g>
			<g>
				
					<line fill="none" stroke="#FFD400" stroke-width="1.6" stroke-linecap="round" x1="62.291" y1="-47.024" x2="66.441" y2="-48.047"/>
			</g>
			<g>
				
					<line fill="none" stroke="#FFD400" stroke-width="1.6" stroke-linecap="round" x1="60.39" y1="-24.975" x2="63.695" y2="-22.263"/>
				
					<line fill="none" stroke="#FFD400" stroke-width="1.6" stroke-linecap="round" x1="61.144" y1="-15.271" x2="64.449" y2="-12.558"/>
				
					<line fill="none" stroke="#FFD400" stroke-width="1.6" stroke-linecap="round" x1="58.4" y1="-29.328" x2="62.509" y2="-30.507"/>
				
					<line fill="none" stroke="#FFD400" stroke-width="1.6" stroke-linecap="round" x1="60.621" y1="-40.094" x2="62.771" y2="-36.398"/>
				
					<line fill="none" stroke="#FFD400" stroke-width="1.6" stroke-linecap="round" x1="62.291" y1="-47.024" x2="66.441" y2="-48.047"/>
				<line fill="none" stroke="#FFD400" stroke-width="1.6" stroke-linecap="round" x1="63.185" y1="-9.9" x2="59.896" y2="-7.169"/>
				
					<line fill="none" stroke="#FFD400" stroke-width="1.6" stroke-linecap="round" x1="64.511" y1="-18.597" x2="60.333" y2="-17.685"/>
				
					<line fill="none" stroke="#FFD400" stroke-width="1.6" stroke-linecap="round" x1="63.248" y1="-43.575" x2="58.984" y2="-43.9"/>
				
					<line fill="none" stroke="#FFD400" stroke-width="1.6" stroke-linecap="round" x1="60.431" y1="-53.399" x2="61.925" y2="-57.405"/>
			</g>
		</g>
		<g>
			
				<line fill="none" stroke="#FFD400" stroke-width="1.6" stroke-linecap="round" x1="62.291" y1="-47.024" x2="66.441" y2="-48.047"/>
			<g>
				
					<line fill="none" stroke="#FFD400" stroke-width="1.6" stroke-linecap="round" x1="29.984" y1="-29.7" x2="27.771" y2="-26.043"/>
				
					<line fill="none" stroke="#FFD400" stroke-width="1.6" stroke-linecap="round" x1="27.419" y1="-36.593" x2="29.175" y2="-33.371"/>
				
					<line fill="none" stroke="#FFD400" stroke-width="1.6" stroke-linecap="round" x1="25.931" y1="-34.149" x2="26.153" y2="-29.333"/>
				
					<line fill="none" stroke="#FFD400" stroke-width="1.6" stroke-linecap="round" x1="34.96" y1="-17.386" x2="35.765" y2="-13.187"/>
				
					<line fill="none" stroke="#FFD400" stroke-width="1.6" stroke-linecap="round" x1="21.685" y1="-22.808" x2="20.894" y2="-18.606"/>
				
					<line fill="none" stroke="#FFD400" stroke-width="1.6" stroke-linecap="round" x1="14.05" y1="-22.345" x2="17.354" y2="-19.633"/>
				
					<line fill="none" stroke="#FFD400" stroke-width="1.6" stroke-linecap="round" x1="21.681" y1="-28.062" x2="24.983" y2="-25.351"/>
				
					<line fill="none" stroke="#FFD400" stroke-width="1.6" stroke-linecap="round" x1="25.858" y1="-18.112" x2="24.386" y2="-22.126"/>
				
					<line fill="none" stroke="#FFD400" stroke-width="1.6" stroke-linecap="round" x1="13.634" y1="-19.493" x2="9.431" y2="-15.899"/>
				
					<line fill="none" stroke="#FFD400" stroke-width="1.6" stroke-linecap="round" x1="19.306" y1="-30.202" x2="23.415" y2="-31.382"/>
				
					<line fill="none" stroke="#FFD400" stroke-width="1.6" stroke-linecap="round" x1="27.976" y1="-10.599" x2="31.416" y2="-13.141"/>
				
					<line fill="none" stroke="#FFD400" stroke-width="1.6" stroke-linecap="round" x1="19.292" y1="-8.732" x2="21.501" y2="-12.392"/>
				
					<line fill="none" stroke="#FFD400" stroke-width="1.6" stroke-linecap="round" x1="37.933" y1="-27.354" x2="39.615" y2="-23.423"/>
				
					<line fill="none" stroke="#FFD400" stroke-width="1.6" stroke-linecap="round" x1="45.931" y1="-36.649" x2="45.384" y2="-30.9"/>
				
					<line fill="none" stroke="#FFD400" stroke-width="1.6" stroke-linecap="round" x1="34.755" y1="-22.604" x2="32.628" y2="-18.895"/>
				
					<line fill="none" stroke="#FFD400" stroke-width="1.6" stroke-linecap="round" x1="43.853" y1="-22.77" x2="40.548" y2="-20.058"/>
				
					<line fill="none" stroke="#FFD400" stroke-width="1.6" stroke-linecap="round" x1="42.775" y1="-9.451" x2="46.095" y2="-6.759"/>
				
					<line fill="none" stroke="#FFD400" stroke-width="1.6" stroke-linecap="round" x1="41.095" y1="-29.031" x2="44.384" y2="-26.301"/>
				
					<line fill="none" stroke="#FFD400" stroke-width="1.6" stroke-linecap="round" x1="34.265" y1="-26.914" x2="35.759" y2="-30.92"/>
				
					<line fill="none" stroke="#FFD400" stroke-width="1.6" stroke-linecap="round" x1="38.466" y1="-31.034" x2="42.103" y2="-33.281"/>
				
					<line fill="none" stroke="#FFD400" stroke-width="1.6" stroke-linecap="round" x1="14.202" y1="-13.576" x2="16.683" y2="-17.058"/>
				
					<line fill="none" stroke="#FFD400" stroke-width="1.6" stroke-linecap="round" x1="45.185" y1="-41.116" x2="42.794" y2="-37.573"/>
				
					<line fill="none" stroke="#FFD400" stroke-width="1.6" stroke-linecap="round" x1="18.181" y1="-23.649" x2="16.462" y2="-28.865"/>
				
					<line fill="none" stroke="#FFD400" stroke-width="1.6" stroke-linecap="round" x1="17.347" y1="-44.354" x2="20.112" y2="-47.614"/>
				
					<line fill="none" stroke="#FFD400" stroke-width="1.6" stroke-linecap="round" x1="38.875" y1="-39.638" x2="38.431" y2="-34.149"/>
				
					<line fill="none" stroke="#FFD400" stroke-width="1.6" stroke-linecap="round" x1="25.681" y1="-38.149" x2="27.599" y2="-42.76"/>
				
					<line fill="none" stroke="#FFD400" stroke-width="1.6" stroke-linecap="round" x1="29.904" y1="-19.444" x2="28.483" y2="-15.413"/>
				
					<line fill="none" stroke="#FFD400" stroke-width="1.6" stroke-linecap="round" x1="35.876" y1="-19.861" x2="39.181" y2="-17.149"/>
				
					<line fill="none" stroke="#FFD400" stroke-width="1.6" stroke-linecap="round" x1="20.526" y1="-39.568" x2="23.181" y2="-34.899"/>
				
					<line fill="none" stroke="#FFD400" stroke-width="1.6" stroke-linecap="round" x1="29.316" y1="-6.384" x2="32.953" y2="-8.632"/>
				
					<line fill="none" stroke="#FFD400" stroke-width="1.6" stroke-linecap="round" x1="19.163" y1="-32.583" x2="15.034" y2="-33.688"/>
				
					<line fill="none" stroke="#FFD400" stroke-width="1.6" stroke-linecap="round" x1="18.558" y1="-41.18" x2="16.931" y2="-38.149"/>
				
					<line fill="none" stroke="#FFD400" stroke-width="1.6" stroke-linecap="round" x1="49.931" y1="-55.649" x2="50.185" y2="-50.501"/>
				
					<line fill="none" stroke="#FFD400" stroke-width="1.6" stroke-linecap="round" x1="34.65" y1="-58.146" x2="37.953" y2="-55.433"/>
				
					<line fill="none" stroke="#FFD400" stroke-width="1.6" stroke-linecap="round" x1="29.431" y1="-56.149" x2="25.144" y2="-53.163"/>
				
					<line fill="none" stroke="#FFD400" stroke-width="1.6" stroke-linecap="round" x1="17.94" y1="-59.226" x2="21.681" y2="-56.649"/>
				
					<line fill="none" stroke="#FFD400" stroke-width="1.6" stroke-linecap="round" x1="32.035" y1="-44.996" x2="34.185" y2="-41.301"/>
				
					<line fill="none" stroke="#FFD400" stroke-width="1.6" stroke-linecap="round" x1="34.181" y1="-52.399" x2="33.636" y2="-49.019"/>
				
					<line fill="none" stroke="#FFD400" stroke-width="1.6" stroke-linecap="round" x1="37.498" y1="-52.854" x2="41.416" y2="-51.141"/>
				
					<line fill="none" stroke="#FFD400" stroke-width="1.6" stroke-linecap="round" x1="29.691" y1="-51.732" x2="31.9" y2="-55.393"/>
				
					<line fill="none" stroke="#FFD400" stroke-width="1.6" stroke-linecap="round" x1="52.431" y1="-40.399" x2="48.595" y2="-37.013"/>
				
					<line fill="none" stroke="#FFD400" stroke-width="1.6" stroke-linecap="round" x1="21.931" y1="-41.899" x2="23.839" y2="-46.8"/>
				
					<line fill="none" stroke="#FFD400" stroke-width="1.6" stroke-linecap="round" x1="20.853" y1="-52.922" x2="23.89" y2="-49.913"/>
				
					<line fill="none" stroke="#FFD400" stroke-width="1.6" stroke-linecap="round" x1="46.404" y1="-56.796" x2="44.181" y2="-52.899"/>
				
					<line fill="none" stroke="#FFD400" stroke-width="1.6" stroke-linecap="round" x1="48.685" y1="-46.406" x2="48.773" y2="-42.132"/>
				<line fill="none" stroke="#FFD400" stroke-width="1.6" stroke-linecap="round" x1="44.8" y1="-49.111" x2="49.07" y2="-48.9"/>
				
					<line fill="none" stroke="#FFD400" stroke-width="1.6" stroke-linecap="round" x1="30.041" y1="-48.546" x2="26.743" y2="-45.822"/>
				
					<line fill="none" stroke="#FFD400" stroke-width="1.6" stroke-linecap="round" x1="49.431" y1="-30.818" x2="47.75" y2="-26.888"/>
				
					<line fill="none" stroke="#FFD400" stroke-width="1.6" stroke-linecap="round" x1="54.269" y1="-22.915" x2="54.984" y2="-18.7"/>
				
					<line fill="none" stroke="#FFD400" stroke-width="1.6" stroke-linecap="round" x1="54.884" y1="-27.9" x2="56.46" y2="-23.926"/>
				
					<line fill="none" stroke="#FFD400" stroke-width="1.6" stroke-linecap="round" x1="54.927" y1="-14.819" x2="51.638" y2="-12.088"/>
				
					<line fill="none" stroke="#FFD400" stroke-width="1.6" stroke-linecap="round" x1="56.787" y1="-11.258" x2="58.996" y2="-14.918"/>
				
					<line fill="none" stroke="#FFD400" stroke-width="1.6" stroke-linecap="round" x1="47.669" y1="-16.253" x2="48.681" y2="-11.149"/>
				
					<line fill="none" stroke="#FFD400" stroke-width="1.6" stroke-linecap="round" x1="58.796" y1="-38.16" x2="54.533" y2="-38.484"/>
				
					<line fill="none" stroke="#FFD400" stroke-width="1.6" stroke-linecap="round" x1="60.548" y1="-21.291" x2="57.261" y2="-18.558"/>
				
					<line fill="none" stroke="#FFD400" stroke-width="1.6" stroke-linecap="round" x1="51.835" y1="-25.069" x2="50.035" y2="-21.192"/>
				
					<line fill="none" stroke="#FFD400" stroke-width="1.6" stroke-linecap="round" x1="57.619" y1="-35.304" x2="60.771" y2="-32.417"/>
				
					<line fill="none" stroke="#FFD400" stroke-width="1.6" stroke-linecap="round" x1="11.931" y1="-56.149" x2="9.218" y2="-53.15"/>
				
					<line fill="none" stroke="#FFD400" stroke-width="1.6" stroke-linecap="round" x1="18.192" y1="-51.291" x2="14.89" y2="-48.577"/>
				
					<line fill="none" stroke="#FFD400" stroke-width="1.6" stroke-linecap="round" x1="15.364" y1="-58.956" x2="16.599" y2="-54.861"/>
				
					<line fill="none" stroke="#FFD400" stroke-width="1.6" stroke-linecap="round" x1="51.933" y1="-30.754" x2="56.181" y2="-30.275"/>
				
					<line fill="none" stroke="#FFD400" stroke-width="1.6" stroke-linecap="round" x1="10.937" y1="-13.692" x2="9.255" y2="-9.763"/>
				
					<line fill="none" stroke="#FFD400" stroke-width="1.6" stroke-linecap="round" x1="12.474" y1="-8.533" x2="9.185" y2="-5.803"/>
				
					<line fill="none" stroke="#FFD400" stroke-width="1.6" stroke-linecap="round" x1="10.315" y1="-31.597" x2="13.604" y2="-28.864"/>
				
					<line fill="none" stroke="#FFD400" stroke-width="1.6" stroke-linecap="round" x1="53.115" y1="-54.385" x2="56.753" y2="-56.632"/>
				
					<line fill="none" stroke="#FFD400" stroke-width="1.6" stroke-linecap="round" x1="54.404" y1="-51.883" x2="52.984" y2="-47.851"/>
				
					<line fill="none" stroke="#FFD400" stroke-width="1.6" stroke-linecap="round" x1="4.69" y1="-47.024" x2="8.841" y2="-48.047"/>
				
					<line fill="none" stroke="#FFD400" stroke-width="1.6" stroke-linecap="round" x1="6.692" y1="-32.594" x2="8.911" y2="-36.249"/>
				<line fill="none" stroke="#FFD400" stroke-width="1.6" stroke-linecap="round" x1="9.747" y1="-43.17" x2="6.46" y2="-40.438"/>
				
					<line fill="none" stroke="#FFD400" stroke-width="1.6" stroke-linecap="round" x1="11.526" y1="-46.568" x2="13.681" y2="-42.899"/>
				
					<line fill="none" stroke="#FFD400" stroke-width="1.6" stroke-linecap="round" x1="9.931" y1="-40.399" x2="12.677" y2="-35.874"/>
				
					<line fill="none" stroke="#FFD400" stroke-width="1.6" stroke-linecap="round" x1="8.192" y1="-29.114" x2="7.401" y2="-24.914"/>
				
					<line fill="none" stroke="#FFD400" stroke-width="1.6" stroke-linecap="round" x1="13.681" y1="-25.899" x2="9.675" y2="-22.822"/>
				
					<line fill="none" stroke="#FFD400" stroke-width="1.6" stroke-linecap="round" x1="15.632" y1="-11.596" x2="15.954" y2="-7.333"/>
				
					<line fill="none" stroke="#FFD400" stroke-width="1.6" stroke-linecap="round" x1="38.931" y1="-48.899" x2="34.994" y2="-45.612"/>
				
					<line fill="none" stroke="#FFD400" stroke-width="1.6" stroke-linecap="round" x1="41.564" y1="-48.228" x2="43.714" y2="-44.532"/>
				
					<line fill="none" stroke="#FFD400" stroke-width="1.6" stroke-linecap="round" x1="37.496" y1="-43.944" x2="41.314" y2="-42.022"/>
				
					<line fill="none" stroke="#FFD400" stroke-width="1.6" stroke-linecap="round" x1="32.648" y1="-24.654" x2="29.343" y2="-21.942"/>
				
					<line fill="none" stroke="#FFD400" stroke-width="1.6" stroke-linecap="round" x1="24.382" y1="-16.8" x2="20.411" y2="-15.221"/>
				
					<line fill="none" stroke="#FFD400" stroke-width="1.6" stroke-linecap="round" x1="24.181" y1="-11.399" x2="26.181" y2="-7.149"/>
				
					<line fill="none" stroke="#FFD400" stroke-width="1.6" stroke-linecap="round" x1="40.431" y1="-14.149" x2="44.447" y2="-12.684"/>
				
					<line fill="none" stroke="#FFD400" stroke-width="1.6" stroke-linecap="round" x1="41.181" y1="-58.399" x2="40.773" y2="-54.025"/>
				
					<line fill="none" stroke="#FFD400" stroke-width="1.6" stroke-linecap="round" x1="45.035" y1="-19.869" x2="43.99" y2="-15.725"/>
				
					<line fill="none" stroke="#FFD400" stroke-width="1.6" stroke-linecap="round" x1="40.353" y1="-11.799" x2="36.259" y2="-10.567"/>
				
					<line fill="none" stroke="#FFD400" stroke-width="1.6" stroke-linecap="round" x1="36.681" y1="-37.899" x2="32.847" y2="-33.772"/>
				
					<line fill="none" stroke="#FFD400" stroke-width="1.6" stroke-linecap="round" x1="54.132" y1="-10.152" x2="55.814" y2="-6.223"/>
				
					<line fill="none" stroke="#FFD400" stroke-width="1.6" stroke-linecap="round" x1="60.39" y1="-24.975" x2="63.695" y2="-22.263"/>
				
					<line fill="none" stroke="#FFD400" stroke-width="1.6" stroke-linecap="round" x1="61.144" y1="-15.271" x2="64.449" y2="-12.558"/>
				
					<line fill="none" stroke="#FFD400" stroke-width="1.6" stroke-linecap="round" x1="58.4" y1="-29.328" x2="62.509" y2="-30.507"/>
				
					<line fill="none" stroke="#FFD400" stroke-width="1.6" stroke-linecap="round" x1="60.621" y1="-40.094" x2="62.771" y2="-36.398"/>
				
					<line fill="none" stroke="#FFD400" stroke-width="1.6" stroke-linecap="round" x1="62.291" y1="-47.024" x2="66.441" y2="-48.047"/>
				<line fill="none" stroke="#FFD400" stroke-width="1.6" stroke-linecap="round" x1="63.185" y1="-9.9" x2="59.896" y2="-7.169"/>
				
					<line fill="none" stroke="#FFD400" stroke-width="1.6" stroke-linecap="round" x1="55.333" y1="-46.953" x2="57.015" y2="-43.022"/>
				
					<line fill="none" stroke="#FFD400" stroke-width="1.6" stroke-linecap="round" x1="64.511" y1="-18.597" x2="60.333" y2="-17.685"/>
				
					<line fill="none" stroke="#FFD400" stroke-width="1.6" stroke-linecap="round" x1="55.111" y1="-35.396" x2="49.931" y2="-34.149"/>
				
					<line fill="none" stroke="#FFD400" stroke-width="1.6" stroke-linecap="round" x1="10.257" y1="-50.286" x2="13.784" y2="-52.7"/>
				
					<line fill="none" stroke="#FFD400" stroke-width="1.6" stroke-linecap="round" x1="49.226" y1="-19.066" x2="52.228" y2="-16.023"/>
				
					<line fill="none" stroke="#FFD400" stroke-width="1.6" stroke-linecap="round" x1="57.277" y1="-52.845" x2="59.273" y2="-49.063"/>
				
					<line fill="none" stroke="#FFD400" stroke-width="1.6" stroke-linecap="round" x1="63.248" y1="-43.575" x2="58.984" y2="-43.9"/>
				
					<line fill="none" stroke="#FFD400" stroke-width="1.6" stroke-linecap="round" x1="30.546" y1="-41.692" x2="31.681" y2="-36.649"/>
				
					<line fill="none" stroke="#FFD400" stroke-width="1.6" stroke-linecap="round" x1="46.345" y1="-25.093" x2="47.185" y2="-20.9"/>
				
					<line fill="none" stroke="#FFD400" stroke-width="1.6" stroke-linecap="round" x1="51.4" y1="-43.542" x2="55.142" y2="-41.471"/>
				
					<line fill="none" stroke="#FFD400" stroke-width="1.6" stroke-linecap="round" x1="39.181" y1="-7.149" x2="36.154" y2="-8.121"/>
				
					<line fill="none" stroke="#FFD400" stroke-width="1.6" stroke-linecap="round" x1="24.831" y1="-59.651" x2="24.384" y2="-55.4"/>
				
					<line fill="none" stroke="#FFD400" stroke-width="1.6" stroke-linecap="round" x1="6.181" y1="-55.899" x2="7.181" y2="-50.649"/>
				
					<line fill="none" stroke="#FFD400" stroke-width="1.6" stroke-linecap="round" x1="60.431" y1="-53.399" x2="61.925" y2="-57.405"/>
				
					<line fill="none" stroke="#FFD400" stroke-width="1.6" stroke-linecap="round" x1="51.931" y1="-8.774" x2="50.181" y2="-4.899"/>
				
					<line fill="none" stroke="#FFD400" stroke-width="1.6" stroke-linecap="round" x1="48.513" y1="-1.734" x2="44.841" y2="-3.923"/>
				<line fill="none" stroke="#FFD400" stroke-width="1.6" stroke-linecap="round" x1="33.681" y1="-6.3" x2="31.892" y2="-0.809"/>
				<line fill="none" stroke="#FFD400" stroke-width="1.6" stroke-linecap="round" x1="25.681" y1="-5.05" x2="28.681" y2="-0.8"/>
				
					<line fill="none" stroke="#FFD400" stroke-width="1.6" stroke-linecap="round" x1="55.119" y1="-4.135" x2="51.814" y2="-1.425"/>
				
					<line fill="none" stroke="#FFD400" stroke-width="1.6" stroke-linecap="round" x1="12.714" y1="-5.673" x2="11.784" y2="-1.502"/>
				
					<line fill="none" stroke="#FFD400" stroke-width="1.6" stroke-linecap="round" x1="19.181" y1="-5.899" x2="15.931" y2="-3.55"/>
				<line fill="none" stroke="#FFD400" stroke-width="1.6" stroke-linecap="round" x1="5.78" y1="-6.099" x2="6.585" y2="-1.901"/>
				
					<line fill="none" stroke="#FFD400" stroke-width="1.6" stroke-linecap="round" x1="58.185" y1="-1.102" x2="60.394" y2="-4.76"/>
				<line fill="none" stroke="#FFD400" stroke-width="1.6" stroke-linecap="round" x1="38.181" y1="-0.8" x2="38.154" y2="-4.073"/>
				
					<line fill="none" stroke="#FFD400" stroke-width="1.6" stroke-linecap="round" x1="21.091" y1="-7.364" x2="21.806" y2="-3.149"/>
				
					<line fill="none" stroke="#FFD400" stroke-width="1.6" stroke-linecap="round" x1="41.333" y1="-5.703" x2="43.181" y2="-2.399"/>
			</g>
			<g>
				
					<line fill="none" stroke="#FFD400" stroke-width="1.6" stroke-linecap="round" x1="2.79" y1="-24.975" x2="6.095" y2="-22.263"/>
				
					<line fill="none" stroke="#FFD400" stroke-width="1.6" stroke-linecap="round" x1="3.544" y1="-15.271" x2="6.849" y2="-12.558"/>
				<line fill="none" stroke="#FFD400" stroke-width="1.6" stroke-linecap="round" x1="0.8" y1="-29.328" x2="4.909" y2="-30.507"/>
				
					<line fill="none" stroke="#FFD400" stroke-width="1.6" stroke-linecap="round" x1="3.021" y1="-40.094" x2="5.171" y2="-36.398"/>
				
					<line fill="none" stroke="#FFD400" stroke-width="1.6" stroke-linecap="round" x1="4.69" y1="-47.024" x2="8.841" y2="-48.047"/>
				<line fill="none" stroke="#FFD400" stroke-width="1.6" stroke-linecap="round" x1="5.585" y1="-9.9" x2="2.296" y2="-7.169"/>
				
					<line fill="none" stroke="#FFD400" stroke-width="1.6" stroke-linecap="round" x1="6.911" y1="-18.597" x2="2.733" y2="-17.685"/>
				<line fill="none" stroke="#FFD400" stroke-width="1.6" stroke-linecap="round" x1="5.647" y1="-43.575" x2="1.384" y2="-43.9"/>
				
					<line fill="none" stroke="#FFD400" stroke-width="1.6" stroke-linecap="round" x1="2.831" y1="-53.399" x2="4.325" y2="-57.405"/>
			</g>
			<g>
				
					<line fill="none" stroke="#FFD400" stroke-width="1.6" stroke-linecap="round" x1="48.513" y1="-59.335" x2="44.841" y2="-61.523"/>
				
					<line fill="none" stroke="#FFD400" stroke-width="1.6" stroke-linecap="round" x1="33.681" y1="-63.9" x2="31.892" y2="-58.409"/>
				
					<line fill="none" stroke="#FFD400" stroke-width="1.6" stroke-linecap="round" x1="25.681" y1="-62.65" x2="28.681" y2="-58.4"/>
				
					<line fill="none" stroke="#FFD400" stroke-width="1.6" stroke-linecap="round" x1="55.119" y1="-61.735" x2="51.814" y2="-59.025"/>
				
					<line fill="none" stroke="#FFD400" stroke-width="1.6" stroke-linecap="round" x1="12.714" y1="-63.273" x2="11.784" y2="-59.103"/>
				
					<line fill="none" stroke="#FFD400" stroke-width="1.6" stroke-linecap="round" x1="19.181" y1="-63.5" x2="15.931" y2="-61.15"/>
				
					<line fill="none" stroke="#FFD400" stroke-width="1.6" stroke-linecap="round" x1="5.78" y1="-63.699" x2="6.585" y2="-59.502"/>
				
					<line fill="none" stroke="#FFD400" stroke-width="1.6" stroke-linecap="round" x1="58.185" y1="-58.702" x2="60.394" y2="-62.36"/>
				
					<line fill="none" stroke="#FFD400" stroke-width="1.6" stroke-linecap="round" x1="38.181" y1="-58.4" x2="38.154" y2="-61.674"/>
				
					<line fill="none" stroke="#FFD400" stroke-width="1.6" stroke-linecap="round" x1="21.091" y1="-64.965" x2="21.806" y2="-60.75"/>
				<line fill="none" stroke="#FFD400" stroke-width="1.6" stroke-linecap="round" x1="41.333" y1="-63.304" x2="43.181" y2="-60"/>
			</g>
		</g>
		<g>
			<line fill="none" stroke="#FFD400" stroke-width="1.6" stroke-linecap="round" x1="4.69" y1="-47.024" x2="8.841" y2="-48.047"/>
			<g>
				
					<line fill="none" stroke="#FFD400" stroke-width="1.6" stroke-linecap="round" x1="2.79" y1="-24.975" x2="6.095" y2="-22.263"/>
				
					<line fill="none" stroke="#FFD400" stroke-width="1.6" stroke-linecap="round" x1="3.544" y1="-15.271" x2="6.849" y2="-12.558"/>
				<line fill="none" stroke="#FFD400" stroke-width="1.6" stroke-linecap="round" x1="0.8" y1="-29.328" x2="4.909" y2="-30.507"/>
				
					<line fill="none" stroke="#FFD400" stroke-width="1.6" stroke-linecap="round" x1="3.021" y1="-40.094" x2="5.171" y2="-36.398"/>
				
					<line fill="none" stroke="#FFD400" stroke-width="1.6" stroke-linecap="round" x1="4.69" y1="-47.024" x2="8.841" y2="-48.047"/>
				<line fill="none" stroke="#FFD400" stroke-width="1.6" stroke-linecap="round" x1="5.585" y1="-9.9" x2="2.296" y2="-7.169"/>
				
					<line fill="none" stroke="#FFD400" stroke-width="1.6" stroke-linecap="round" x1="6.911" y1="-18.597" x2="2.733" y2="-17.685"/>
				<line fill="none" stroke="#FFD400" stroke-width="1.6" stroke-linecap="round" x1="5.647" y1="-43.575" x2="1.384" y2="-43.9"/>
				
					<line fill="none" stroke="#FFD400" stroke-width="1.6" stroke-linecap="round" x1="2.831" y1="-53.399" x2="4.325" y2="-57.405"/>
			</g>
		</g>
		<g>
			<g>
				
					<line fill="none" stroke="#FFD400" stroke-width="1.6" stroke-linecap="round" x1="48.513" y1="-59.335" x2="44.841" y2="-61.523"/>
				
					<line fill="none" stroke="#FFD400" stroke-width="1.6" stroke-linecap="round" x1="33.681" y1="-63.9" x2="31.892" y2="-58.409"/>
				
					<line fill="none" stroke="#FFD400" stroke-width="1.6" stroke-linecap="round" x1="25.681" y1="-62.65" x2="28.681" y2="-58.4"/>
				
					<line fill="none" stroke="#FFD400" stroke-width="1.6" stroke-linecap="round" x1="55.119" y1="-61.735" x2="51.814" y2="-59.025"/>
				
					<line fill="none" stroke="#FFD400" stroke-width="1.6" stroke-linecap="round" x1="12.714" y1="-63.273" x2="11.784" y2="-59.103"/>
				
					<line fill="none" stroke="#FFD400" stroke-width="1.6" stroke-linecap="round" x1="19.181" y1="-63.5" x2="15.931" y2="-61.15"/>
				
					<line fill="none" stroke="#FFD400" stroke-width="1.6" stroke-linecap="round" x1="5.78" y1="-63.699" x2="6.585" y2="-59.502"/>
				
					<line fill="none" stroke="#FFD400" stroke-width="1.6" stroke-linecap="round" x1="58.185" y1="-58.702" x2="60.394" y2="-62.36"/>
				
					<line fill="none" stroke="#FFD400" stroke-width="1.6" stroke-linecap="round" x1="38.181" y1="-58.4" x2="38.154" y2="-61.674"/>
				
					<line fill="none" stroke="#FFD400" stroke-width="1.6" stroke-linecap="round" x1="21.091" y1="-64.965" x2="21.806" y2="-60.75"/>
				<line fill="none" stroke="#FFD400" stroke-width="1.6" stroke-linecap="round" x1="41.333" y1="-63.304" x2="43.181" y2="-60"/>
			</g>
		</g>
	</g>
</pattern>
<g id="Quiche">
	<ellipse opacity="0.25" fill="#664100" cx="293.077" cy="529" rx="73.587" ry="22.499"/>
	<path fill="#FAE9D1" stroke="#F5D2A2" stroke-width="8" stroke-miterlimit="10" d="M429.917,126.212
		c3.051-23.457,5.097-50.878-7.992-54.249c-9-2.318-20.564,15.25-35.599,10.718c-15.204-4.584-18.985-23.055-28.206-24.217
		c-9.223-1.163-18.442,16.674-33.756,15.581c-15.149-1.08-21.999-20.074-31.293-20.074c-9.294,0-16.144,18.994-31.292,20.074
		c-15.314,1.093-24.535-16.744-33.757-15.581c-9.221,1.162-13.001,19.633-28.207,24.217c-15.034,4.532-26.476-12.493-35.599-10.718
		c-13.903,2.704-11.474,28.704-7.98,54.249"/>
	<path fill="#FFECBF" d="M429.917,126.212c0,0-0.109,1.508-0.45,4.276c-0.159,1.384-0.37,3.09-0.649,5.092
		c-0.271,2.002-0.61,4.289-1.021,6.835c-0.8,5.118-1.89,11.285-3.279,18.318c-1.37,7.033-3.091,14.907-5.131,23.46
		c-0.909,3.845-1.899,7.812-2.949,11.903c-3.62,14.092-8.03,29.567-13.17,45.722c-4.07,12.854-8.62,26.142-13.511,39.528
		c-14.13-1.706-26.189,5.735-33.08,21.211c-26.6-2.893-42.1,11.433-38.97,36.042c-24.31,9.246-30.28,28.59-14.25,49.22
		c-10.74,13.818-11.6,27.068-3.689,37.081c1.069,1.372,2.3,2.657,3.689,3.893c3.601,3.189,8.26,5.935,13.94,8.134
		c-1.521,2.547-3,4.981-4.431,7.293c-3.52,5.711-6.72,10.692-9.51,14.87c-0.24,0.37-0.49,0.74-0.729,1.1
		c-0.101,0.148-0.19,0.297-0.29,0.432c-1.351,2.028-2.58,3.845-3.69,5.415c-1.17,1.706-2.21,3.126-3.05,4.289
		c-1.67,2.323-2.62,3.535-2.62,3.535s-0.96-1.212-2.63-3.535c-0.85-1.163-1.88-2.583-3.05-4.289c-1.19-1.682-2.51-3.646-3.98-5.847
		c-2.95-4.388-6.4-9.752-10.24-15.97c-3.84-6.204-8-13.264-12.39-21.013c-3.89-6.885-7.94-14.338-12.06-22.225
		c-5.16-9.875-10.43-20.443-15.65-31.494c-4.63-9.826-9.26-20.011-13.75-30.443c23.61,0.718,37.05-13.324,34.12-36.377
		c5.82-2.212,10.59-5.005,14.25-8.256c1.39-1.236,2.63-2.534,3.7-3.894c7.9-10.012,7.04-23.262-3.7-37.081
		c16.03-20.629,10.06-39.973-14.25-49.231c1.23-9.666-0.42-17.737-4.48-23.819c-6.28-9.381-18.34-13.979-34.5-12.224
		c-10-22.472-30.92-27.997-53.24-13.176c-0.26-0.173-2.32-9.036-2.87-12.571c-0.41-2.546-0.75-4.833-1.02-6.835
		c-0.28-2.002-0.49-3.708-0.65-5.092c-0.34-2.769-0.45-4.276-0.45-4.276c42.69-14.363,88.78-22.212,136.84-22.212
		C341.147,104,387.237,111.849,429.917,126.212z"/>
	<g opacity="0.8">
		<defs>
			<path id="SVGID_1_" opacity="0.8" d="M429.917,126.212c0,0-0.109,1.508-0.45,4.276c-0.159,1.384-0.37,3.09-0.649,5.092
				c-0.271,2.002-0.61,4.289-1.021,6.835c-0.8,5.118-1.89,11.285-3.279,18.318c-1.37,7.033-3.091,14.907-5.131,23.46
				c-0.909,3.845-1.899,7.812-2.949,11.903c-3.62,14.092-8.03,29.567-13.17,45.722c-4.07,12.854-8.62,26.142-13.511,39.528
				c-14.13-1.706-26.189,5.735-33.08,21.211c-26.6-2.893-42.1,11.433-38.97,36.042c-24.31,9.246-30.28,28.59-14.25,49.22
				c-10.74,13.818-11.6,27.068-3.689,37.081c1.069,1.372,2.3,2.657,3.689,3.893c3.601,3.189,8.26,5.935,13.94,8.134
				c-1.521,2.547-3,4.981-4.431,7.293c-3.52,5.711-6.72,10.692-9.51,14.87c-0.24,0.37-0.49,0.74-0.729,1.1
				c-0.101,0.148-0.19,0.297-0.29,0.432c-1.351,2.028-2.58,3.845-3.69,5.415c-1.17,1.706-2.21,3.126-3.05,4.289
				c-1.67,2.323-2.62,3.535-2.62,3.535s-0.96-1.212-2.63-3.535c-0.85-1.163-1.88-2.583-3.05-4.289
				c-1.19-1.682-2.51-3.646-3.98-5.847c-2.95-4.388-6.4-9.752-10.24-15.97c-3.84-6.204-8-13.264-12.39-21.013
				c-3.89-6.885-7.94-14.338-12.06-22.225c-5.16-9.875-10.43-20.443-15.65-31.494c-4.63-9.826-9.26-20.011-13.75-30.443
				c23.61,0.718,37.05-13.324,34.12-36.377c5.82-2.212,10.59-5.005,14.25-8.256c1.39-1.236,2.63-2.534,3.7-3.894
				c7.9-10.012,7.04-23.262-3.7-37.081c16.03-20.629,10.06-39.973-14.25-49.231c1.23-9.666-0.42-17.737-4.48-23.819
				c-6.28-9.381-18.34-13.979-34.5-12.224c-10-22.472-30.92-27.997-53.24-13.176c-0.26-0.173-2.32-9.036-2.87-12.571
				c-0.41-2.546-0.75-4.833-1.02-6.835c-0.28-2.002-0.49-3.708-0.65-5.092c-0.34-2.769-0.45-4.276-0.45-4.276
				c42.69-14.363,88.78-22.212,136.84-22.212C341.147,104,387.237,111.849,429.917,126.212z"/>
		</defs>
		<clipPath id="SVGID_2_">
			<use xlink:href="#SVGID_1_"  overflow="visible"/>
		</clipPath>
		<g clip-path="url(#SVGID_2_)">
			<g>
				
					<use xlink:href="#_x12_5323374720_-1651387264_37_x00_"  width="45.393" height="78.693" x="-22.696" y="-39.347" transform="matrix(-0.6976 0.6046 0.6202 0.6801 298.9229 210.3047)" overflow="visible"/>
				
					<use xlink:href="#_x12_5323374720_-1651387264_10_x00_"  width="45.393" height="78.693" x="-22.696" y="-39.347" transform="matrix(0.7294 -0.259 -0.2657 -0.7111 276.8516 367.6875)" overflow="visible"/>
				
					<use xlink:href="#Spinach"  width="45.393" height="78.693" x="-22.697" y="-39.347" transform="matrix(0.8591 0.4989 0.5117 -0.8376 435.1855 144.7905)" overflow="visible"/>
				
					<use xlink:href="#Spinach"  width="45.393" height="78.693" x="-22.697" y="-39.347" transform="matrix(0.5573 0.6781 0.6956 -0.5433 189.2681 126.8887)" overflow="visible"/>
				
					<use xlink:href="#_x12_5323374720_-1651387264_11_x00_"  width="45.393" height="78.693" x="-22.696" y="-39.347" transform="matrix(0.4385 0.5344 0.5482 -0.4275 174.6934 306.2012)" overflow="visible"/>
				
					<use xlink:href="#Spinach"  width="45.393" height="78.693" x="-22.697" y="-39.347" transform="matrix(0.4612 0.865 0.8873 -0.4496 375.6387 312.0371)" overflow="visible"/>
				
					<use xlink:href="#_x12_5323374720_-1651387264_33_x00_"  width="45.393" height="78.693" x="-22.696" y="-39.347" transform="matrix(0.9396 -0.3336 -0.3422 -0.916 333.6084 423.2646)" overflow="visible"/>
				
					<use xlink:href="#_x12_5323374720_-1651387264_9_x00_"  width="45.393" height="78.693" x="-22.696" y="-39.347" transform="matrix(0.0858 0.9086 0.932 -0.0836 379.5635 209.1245)" overflow="visible"/>
				
					<use xlink:href="#_x12_5323374720_-1651387264_7_x00_"  width="45.393" height="78.693" x="-22.696" y="-39.347" transform="matrix(-0.2906 0.6317 0.648 0.2833 317.123 131.9512)" overflow="visible"/>
				
					<use xlink:href="#_x12_5323374720_-1651387264_43_x00_"  width="45.393" height="78.693" x="-22.696" y="-39.347" transform="matrix(0.2722 0.9381 0.9622 -0.2654 184.3042 220.146)" overflow="visible"/>
				
					<use xlink:href="#Spinach"  width="45.393" height="78.693" x="-22.697" y="-39.347" transform="matrix(0.5108 0.6739 0.6912 -0.498 259.3086 297.2402)" overflow="visible"/>
			</g>
			<g>
				
					<use xlink:href="#_x12_5323387200_-1651387264_70_x00_"  width="27.438" height="27.439" x="-13.719" y="-13.719" transform="matrix(0.8364 0.5396 0.5535 -0.8154 258.1177 128.1846)" overflow="visible"/>
				
					<use xlink:href="#_x12_5323387200_-1651387264_56_x00_"  width="27.438" height="27.439" x="-13.719" y="-13.719" transform="matrix(0.0839 1.0218 1.0481 -0.0818 297.7632 151.9175)" overflow="visible"/>
				
					<use xlink:href="#_x12_5323387200_-1651387264_57_x00_"  width="27.438" height="27.439" x="-13.719" y="-13.719" transform="matrix(0.9911 -0.1297 -0.133 -0.9662 204.9922 233.9502)" overflow="visible"/>
				
					<use xlink:href="#_x12_5323387200_-1651387264_18_x00_"  width="27.438" height="27.439" x="-13.719" y="-13.719" transform="matrix(0.7388 -0.7371 -0.756 -0.7203 266.52 256.8481)" overflow="visible"/>
				
					<use xlink:href="#_x12_5323387200_-1651387264_17_x00_"  width="27.438" height="27.439" x="-13.719" y="-13.719" transform="matrix(0.126 -0.8322 -0.8537 -0.1228 288.1953 334.6484)" overflow="visible"/>
				
					<use xlink:href="#_x12_5323387200_-1651387264_15_x00_"  width="27.438" height="27.439" x="-13.719" y="-13.719" transform="matrix(0.5821 -0.8492 -0.871 -0.5674 337.0625 341.2422)" overflow="visible"/>
				
					<use xlink:href="#_x12_5323387200_-1651387264_38_x00_"  width="27.438" height="27.439" x="-13.719" y="-13.719" transform="matrix(0.8959 -0.4331 -0.4442 -0.8734 298.019 420.9961)" overflow="visible"/>
				
					<use xlink:href="#_x12_5323387200_-1651387264_36_x00_"  width="27.438" height="27.439" x="-13.719" y="-13.719" transform="matrix(0.8058 -0.6032 -0.6187 -0.7856 329.9854 389.2432)" overflow="visible"/>
				
					<use xlink:href="#Ham"  width="27.438" height="27.439" x="-13.719" y="-13.72" transform="matrix(0.0794 1.0977 1.126 -0.0774 353.8164 215.6025)" overflow="visible"/>
				
					<use xlink:href="#Ham"  width="27.438" height="27.439" x="-13.719" y="-13.72" transform="matrix(0.3379 0.4142 0.4249 -0.3295 378.0044 144.9844)" overflow="visible"/>
			</g>
			<g>
				
					<use xlink:href="#_x12_5270416704_-1651387264_15_x00_"  width="136" height="136" x="-68" y="-68" transform="matrix(0.9381 0 0 -0.9146 196.958 213.4561)" overflow="visible"/>
				
					<use xlink:href="#Tomato"  width="136" height="136" x="-68" y="-68" transform="matrix(1.1715 0 0 -1.1421 407.9385 259.7998)" overflow="visible"/>
				
					<use xlink:href="#_x12_5270416704_-1651387264_45_x00_"  width="136" height="136" x="-68" y="-68" transform="matrix(0.9651 0 0 -0.9409 206.0957 373.0361)" overflow="visible"/>
			</g>
		</g>
	</g>
	<pattern  id="Cheese_2_" xlink:href="#New_Pattern" patternTransform="matrix(4.5 0 0 4.5 26731.293 25375.0977)">
	</pattern>
	<path id="Cheese_1_" opacity="0.5" fill="url(#Cheese_2_)" d="M429.917,126.212c0,0-0.109,1.508-0.45,4.276
		c-0.159,1.384-0.37,3.09-0.649,5.092c-0.271,2.002-0.61,4.289-1.021,6.835c-0.8,5.118-1.89,11.285-3.279,18.318
		c-1.37,7.033-3.091,14.907-5.131,23.46c-0.909,3.845-1.899,7.812-2.949,11.903c-3.62,14.092-8.03,29.567-13.17,45.722
		c-4.07,12.854-8.62,26.142-13.511,39.528c-14.13-1.706-26.189,5.735-33.08,21.211c-26.6-2.893-42.1,11.433-38.97,36.042
		c-24.31,9.246-30.28,28.59-14.25,49.22c-10.74,13.818-11.6,27.068-3.689,37.081c1.069,1.372,2.3,2.657,3.689,3.893
		c3.601,3.189,8.26,5.935,13.94,8.134c-1.521,2.547-3,4.981-4.431,7.293c-3.52,5.711-6.72,10.692-9.51,14.87
		c-0.24,0.37-0.49,0.74-0.729,1.1c-0.101,0.148-0.19,0.297-0.29,0.432c-1.351,2.028-2.58,3.845-3.69,5.415
		c-1.17,1.706-2.21,3.126-3.05,4.289c-1.67,2.323-2.62,3.535-2.62,3.535s-0.96-1.212-2.63-3.535c-0.85-1.163-1.88-2.583-3.05-4.289
		c-1.19-1.682-2.51-3.646-3.98-5.847c-2.95-4.388-6.4-9.752-10.24-15.97c-3.84-6.204-8-13.264-12.39-21.013
		c-3.89-6.885-7.94-14.338-12.06-22.225c-5.16-9.875-10.43-20.443-15.65-31.494c-4.63-9.826-9.26-20.011-13.75-30.443
		c23.61,0.718,37.05-13.324,34.12-36.377c5.82-2.212,10.59-5.005,14.25-8.256c1.39-1.236,2.63-2.534,3.7-3.894
		c7.9-10.012,7.04-23.262-3.7-37.081c16.03-20.629,10.06-39.973-14.25-49.231c1.23-9.666-0.42-17.737-4.48-23.819
		c-6.28-9.381-18.34-13.979-34.5-12.224c-10-22.472-30.92-27.997-53.24-13.176c-0.26-0.173-2.32-9.036-2.87-12.571
		c-0.41-2.546-0.75-4.833-1.02-6.835c-0.28-2.002-0.49-3.708-0.65-5.092c-0.34-2.769-0.45-4.276-0.45-4.276
		c42.69-14.363,88.78-22.212,136.84-22.212C341.147,104,387.237,111.849,429.917,126.212z"/>
	<path fill="none" stroke="#FCD382" stroke-width="8" stroke-linecap="round" stroke-linejoin="round" stroke-miterlimit="10" d="
		M429.917,126.212c0,0-0.109,1.508-0.45,4.276c-0.159,1.384-0.37,3.09-0.649,5.092c-0.271,2.002-0.61,4.289-1.021,6.835
		c-0.8,5.118-1.89,11.285-3.279,18.318c-1.37,7.033-3.091,14.907-5.131,23.46c-0.909,3.845-1.899,7.812-2.949,11.903
		c-3.62,14.092-8.03,29.567-13.17,45.722c-4.07,12.854-8.62,26.142-13.511,39.528c-14.13-1.706-26.189,5.735-33.08,21.211
		c-26.6-2.893-42.1,11.433-38.97,36.042c-24.31,9.246-30.28,28.59-14.25,49.22c-10.74,13.818-11.6,27.068-3.689,37.081
		c1.069,1.372,2.3,2.657,3.689,3.893c3.601,3.189,8.26,5.935,13.94,8.134c-1.521,2.547-3,4.981-4.431,7.293
		c-3.52,5.711-6.72,10.692-9.51,14.87c-0.24,0.37-0.49,0.74-0.729,1.1c-0.101,0.148-0.19,0.297-0.29,0.432
		c-1.351,2.028-2.58,3.845-3.69,5.415c-1.17,1.706-2.21,3.126-3.05,4.289c-1.67,2.323-2.62,3.535-2.62,3.535s-0.96-1.212-2.63-3.535
		c-0.85-1.163-1.88-2.583-3.05-4.289c-1.19-1.682-2.51-3.646-3.98-5.847c-2.95-4.388-6.4-9.752-10.24-15.97
		c-3.84-6.204-8-13.264-12.39-21.013c-3.89-6.885-7.94-14.338-12.06-22.225c-5.16-9.875-10.43-20.443-15.65-31.494
		c-4.63-9.826-9.26-20.011-13.75-30.443c23.61,0.718,37.05-13.324,34.12-36.377c5.82-2.212,10.59-5.005,14.25-8.256
		c1.39-1.236,2.63-2.534,3.7-3.894c7.9-10.012,7.04-23.262-3.7-37.081c16.03-20.629,10.06-39.973-14.25-49.231
		c1.23-9.666-0.42-17.737-4.48-23.819c-6.28-9.381-18.34-13.979-34.5-12.224c-10-22.472-30.92-27.997-53.24-13.176
		c-0.26-0.173-2.32-9.036-2.87-12.571c-0.41-2.546-0.75-4.833-1.02-6.835c-0.28-2.002-0.49-3.708-0.65-5.092
		c-0.34-2.769-0.45-4.276-0.45-4.276c42.69-14.363,88.78-22.212,136.84-22.212C341.147,104,387.237,111.849,429.917,126.212z"/>
</g>
<g id="Logotype">
	<g>
		<g>
			<g>
				<path fill="none" stroke="#FFFFFF" stroke-width="24" stroke-linecap="round" stroke-linejoin="round" d="M235.066,229.019
					c-6.476,9.26-15.531,27.763-8.459,33.73c14.338,12.097,32.053-14.631,37.804-25.083"/>
				<path fill="none" stroke="#FFFFFF" stroke-width="24" stroke-linecap="round" stroke-linejoin="round" d="M268.407,224.666
					c-12.155,29.952,1.368,50.927,23.879,23.614"/>
				<path fill="none" stroke="#FFFFFF" stroke-width="24" stroke-linecap="round" stroke-linejoin="round" d="M299.623,223.613
					c-19.389,35.588,4.121,42.053,28.787,23.053"/>
				<path fill="none" stroke="#FFFFFF" stroke-width="24" stroke-linecap="round" stroke-linejoin="round" d="M358.077,219.333
					c-15.5-17.333-46.76,19.197-23.922,32.206c34.226,19.497,79.926-97.607,57.981-67.043c-6.221,8.664-6.422,43.865-8.328,63.304
					c1.823-11.986,12.561-41.39,24.076-37.168c10.37,3.802-4.261,24.754,5.005,30.093c19.619,11.306,54.875-26.797,41.977-36.208
					c-11.15-8.135-27.361,22.888-18.592,33.263c15.532,18.377,58.875,0.992,80.201-19.279"/>
				<path fill="none" stroke="#FFFFFF" stroke-width="24" stroke-linecap="round" stroke-linejoin="round" d="M106.077,280
					c-42-40-24-109.604,42.85-109.259c50.15,0.259,63.264,51.932,55.15,75.259c-8,23-41,59-62.593,53.968
					c-28.373-6.612-20.483-40.864,6.38-34.955C168.149,269.477,181.077,304,207.077,310c25.052,5.781,41.809,3.686,66.062-11.192"/>
			</g>
			<g>
				
					<path fill="none" stroke="#807A6D" stroke-width="10" stroke-linecap="round" stroke-linejoin="round" stroke-miterlimit="10" d="
					M235.066,229.019c-6.476,9.26-15.531,27.763-8.459,33.73c14.338,12.097,32.053-14.631,37.804-25.083"/>
				
					<path fill="none" stroke="#807A6D" stroke-width="10" stroke-linecap="round" stroke-linejoin="round" stroke-miterlimit="10" d="
					M268.407,224.666c-12.155,29.952,1.368,50.927,23.879,23.614"/>
				
					<path fill="none" stroke="#807A6D" stroke-width="10" stroke-linecap="round" stroke-linejoin="round" stroke-miterlimit="10" d="
					M299.623,223.613c-19.389,35.588,4.121,42.053,28.787,23.053"/>
				
					<path fill="none" stroke="#807A6D" stroke-width="10" stroke-linecap="round" stroke-linejoin="round" stroke-miterlimit="10" d="
					M358.077,219.333c-15.5-17.333-46.76,19.197-23.922,32.206c34.226,19.497,79.926-97.607,57.981-67.043
					c-6.221,8.664-6.422,43.865-8.328,63.304c1.823-11.986,12.561-41.39,24.076-37.168c10.37,3.802-4.261,24.754,5.005,30.093
					c19.619,11.306,54.875-26.797,41.977-36.208c-11.15-8.135-27.361,22.888-18.592,33.263
					c15.532,18.377,58.875,0.992,80.201-19.279"/>
				
					<path fill="none" stroke="#807A6D" stroke-width="10" stroke-linecap="round" stroke-linejoin="round" stroke-miterlimit="10" d="
					M106.077,280c-42-40-24-109.604,42.85-109.259c50.15,0.259,63.264,51.932,55.15,75.259c-8,23-41,59-62.593,53.968
					c-28.373-6.612-20.483-40.864,6.38-34.955C168.149,269.477,181.077,304,207.077,310c25.052,5.781,41.809,3.686,66.062-11.192"/>
			</g>
		</g>
		<g>
			<circle fill="none" stroke="#FFFFFF" stroke-width="12" cx="317.952" cy="199.125" r="5"/>
			<circle fill="#807A6D" cx="317.952" cy="199.125" r="5"/>
		</g>
	</g>
</g>
</svg>
